<svg width="16" height="21" viewBox="0 0 16 21" fill="none" xmlns="http://www.w3.org/2000/svg">
<path d="M1 8C1 6.13872 1 5.20808 1.24472 4.45492C1.73931 2.93273 2.93273 1.73931 4.45492 1.24472C5.20808 1 6.13872 1 8 1C9.86128 1 10.7919 1 11.5451 1.24472C13.0673 1.73931 14.2607 2.93273 14.7553 4.45492C15 5.20808 15 6.13872 15 8V15.3874C15 17.3045 15 18.2631 14.658 18.77C14.2403 19.3893 13.5122 19.7242 12.7701 19.6383C12.1627 19.568 11.4349 18.9442 9.97931 17.6965C9.33858 17.1474 9.01821 16.8728 8.66631 16.7484C8.23517 16.5961 7.76483 16.5961 7.33369 16.7484C6.98179 16.8728 6.66142 17.1474 6.02069 17.6965C4.5651 18.9442 3.8373 19.568 3.22986 19.6383C2.48778 19.7242 1.75971 19.3893 1.34196 18.77C1 18.2631 1 17.3045 1 15.3874V8Z" stroke="#010205" stroke-width="1.5"/>
</svg>
