<svg width="2428" height="170" viewBox="0 0 2428 170" fill="none" xmlns="http://www.w3.org/2000/svg">
<path fill-rule="evenodd" clip-rule="evenodd" d="M355.168 126.853V43.1336C355.168 16.4159 374.013 0.437134 400.005 0.437134H625.873C651.865 0.437134 670.71 16.4159 670.71 43.1336V126.853C670.71 153.584 651.865 169.537 625.873 169.537H400.005C374.013 169.537 355.168 153.584 355.168 126.853ZM0.756348 0.450096H277.661C304.132 0.450096 315.584 25.7282 315.584 49.0997V68.658C315.584 98.2291 297.933 119.707 267.168 119.707H39.4062V169.537H0.756348V0.450096ZM712.446 0.450096H990.531C1010.32 0.450096 1028.45 13.5625 1028.45 34.3142V78.2038C1028.45 96.569 1014.14 106.335 997.924 110.641C1021.3 121.614 1026.07 145.932 1028.45 169.537H990.531C988.858 144.025 977.885 119.707 948.561 119.707H751.083V169.537H712.446V0.450096ZM1378.31 0.450096V34.3142H1121.23C1110.97 34.3142 1106.68 41.7069 1106.68 51.4861C1106.68 60.7854 1111.45 67.9448 1121.23 67.9448H1330.87C1365.21 67.9448 1383.81 84.4034 1383.81 119.461C1383.81 148.798 1368.08 169.537 1337.56 169.537H1074.02V135.673H1330.88C1339.7 135.673 1343.53 128.047 1343.53 120.174C1343.53 111.134 1341.64 101.575 1330.88 101.575H1113.12C1084.98 101.575 1068.76 79.8769 1068.76 52.9257C1068.76 19.2951 1086.88 0.463059 1121.24 0.463059L1378.31 0.450096ZM1724.62 0.450096V34.3142H1470.85C1464.9 34.3142 1462.75 40.0338 1462.75 45.0531V127.346C1462.75 132.366 1465.86 135.686 1470.85 135.686H1724.62V169.55H1470.85C1443.19 169.55 1424.37 150.471 1424.37 122.56V50.0724C1424.37 18.1149 1437.95 0.463059 1470.85 0.463059L1724.62 0.450096ZM1766.11 0.450096H1804.99V66.2716H2029.44V0.450096H2069.25V169.537H2029.44V100.136H1804.99V169.537H1766.11V0.450096ZM2110.04 0.450096H2427.24V34.3142H2148.67V66.9979H2427.24V100.616H2148.67V135.673H2427.24V169.537H2110.04V0.450096Z" fill="white"/>
<path fill-rule="evenodd" clip-rule="evenodd" d="M416.23 135.673H612.281C624.2 135.673 633.979 130.433 633.979 116.828V53.1592C633.979 39.5669 624.446 34.3142 612.281 34.3142H416.23C404.064 34.3142 394.285 39.5669 394.285 53.1592V116.828C394.285 130.433 404.298 135.673 416.23 135.673ZM39.4062 34.3142V85.8301H259.776C269.321 85.8301 277.661 82.017 277.661 71.278V52.2125C277.661 41.0066 270.981 34.3272 259.776 34.3272L39.4062 34.3142ZM751.083 34.3142V85.8301H980.998C988.624 85.8301 990.531 79.3841 990.531 72.9511V50.0465C990.531 39.0741 986.484 34.3013 975.266 34.3013L751.083 34.3142Z" fill="black"/>
</svg>
