<svg xmlns="http://www.w3.org/2000/svg" width="32" height="32" viewBox="0 0 32 32"><path d="M16,2C8.268,2,2,8.268,2,16c0,5.931,3.69,11.001,8.898,13.041-.122-1.108-.233-2.811,.049-4.02,.254-1.093,1.642-6.959,1.642-6.959,0,0-.419-.839-.419-2.079,0-1.947,1.128-3.4,2.533-3.4,1.194,0,1.771,.897,1.771,1.972,0,1.201-.765,2.997-1.16,4.661-.33,1.393,.699,2.53,2.073,2.53,2.488,0,4.401-2.624,4.401-6.411,0-3.352-2.409-5.696-5.848-5.696-3.983,0-6.322,2.988-6.322,6.076,0,1.203,.464,2.494,1.042,3.195,.114,.139,.131,.26,.097,.402-.106,.442-.342,1.393-.389,1.588-.061,.256-.203,.311-.468,.187-1.749-.814-2.842-3.37-2.842-5.424,0-4.416,3.209-8.472,9.25-8.472,4.857,0,8.631,3.461,8.631,8.086,0,4.825-3.042,8.708-7.265,8.708-1.419,0-2.752-.737-3.209-1.608,0,0-.702,2.673-.872,3.328-.316,1.216-1.169,2.74-1.74,3.67,1.31,.406,2.702,.624,4.145,.624,7.732,0,14-6.268,14-14S23.732,2,16,2Z"></path></svg>